<svg width="443" height="330" viewBox="0 0 443 330" fill="none" xmlns="http://www.w3.org/2000/svg">
<path d="M442.882 289.999H0V290.22H442.882V289.999Z" fill="#EBEBEB"/>
<path d="M102.155 298.432H80.126V298.653H102.155V298.432Z" fill="#EBEBEB"/>
<path d="M159.286 296.031H134.928V296.252H159.286V296.031Z" fill="#EBEBEB"/>
<path d="M93.6963 306.66H42.2246V306.882H93.6963V306.66Z" fill="#EBEBEB"/>
<path d="M398.505 305.172H379.372V305.394H398.505V305.172Z" fill="#EBEBEB"/>
<path d="M214.992 297.741H190.253V297.962H214.992V297.741Z" fill="#EBEBEB"/>
<path d="M328.521 301.434H266.322V301.656H328.521V301.434Z" fill="#EBEBEB"/>
<path d="M209.927 250.494H38.8946C37.5547 250.492 36.2705 249.958 35.3239 249.009C34.3774 248.061 33.8457 246.776 33.8457 245.436V5.01342C33.8574 3.68126 34.3942 2.40749 35.3395 1.46879C36.2848 0.530092 37.5623 0.00228207 38.8946 0H209.927C211.268 0 212.554 0.532865 213.503 1.48137C214.451 2.42987 214.984 3.71632 214.984 5.05771V245.436C214.984 246.778 214.451 248.064 213.503 249.013C212.554 249.961 211.268 250.494 209.927 250.494ZM38.8946 0.177153C37.6134 0.1795 36.3856 0.690068 35.4805 1.59679C34.5755 2.50351 34.0671 3.7323 34.0671 5.01342V245.436C34.0671 246.717 34.5755 247.946 35.4805 248.853C36.3856 249.76 37.6134 250.27 38.8946 250.272H209.927C211.209 250.27 212.437 249.76 213.344 248.853C214.25 247.947 214.761 246.718 214.763 245.436V5.01342C214.761 3.73148 214.25 2.50272 213.344 1.59625C212.437 0.68978 211.209 0.179495 209.927 0.177153H38.8946Z" fill="#EBEBEB"/>
<path d="M401.525 250.494H230.484C229.144 250.492 227.859 249.958 226.911 249.01C225.963 248.062 225.429 246.777 225.427 245.436V5.01342C225.441 3.68045 225.979 2.40669 226.926 1.46824C227.873 0.529783 229.151 0.00225718 230.484 0H401.525C402.856 0.00460995 404.131 0.53345 405.075 1.4719C406.018 2.41035 406.554 3.68279 406.565 5.01342V245.436C406.565 246.775 406.035 248.058 405.09 249.006C404.146 249.954 402.864 250.489 401.525 250.494ZM230.484 0.177153C229.203 0.179495 227.974 0.68978 227.067 1.59625C226.161 2.50272 225.651 3.73148 225.648 5.01342V245.436C225.651 246.718 226.161 247.947 227.067 248.853C227.974 249.76 229.203 250.27 230.484 250.272H401.525C402.807 250.27 404.036 249.76 404.943 248.853C405.849 247.947 406.359 246.718 406.362 245.436V5.01342C406.359 3.73148 405.849 2.50272 404.943 1.59625C404.036 0.68978 402.807 0.179495 401.525 0.177153H230.484Z" fill="#EBEBEB"/>
<path d="M284.348 8.52103H28.2113C24.0043 8.52103 20.5938 11.9315 20.5938 16.1386V173.884C20.5938 178.091 24.0043 181.502 28.2113 181.502H284.348C288.555 181.502 291.965 178.091 291.965 173.884V16.1386C291.965 11.9315 288.555 8.52103 284.348 8.52103Z" fill="#EBEBEB"/>
<path d="M291.965 17.2724H20.5938V156.709H291.965V17.2724Z" fill="#FAFAFA"/>
<path d="M204.851 70.0993C204.855 68.3741 205.543 66.7209 206.763 65.501C207.982 64.2811 209.636 63.5937 211.361 63.589H414.201C415.926 63.5937 417.579 64.2811 418.799 65.501C420.019 66.7209 420.706 68.3741 420.711 70.0993V91.0565H204.851V70.0993Z" fill="#E6E6E6"/>
<path d="M257.5 82.252C260.22 82.252 262.425 80.0471 262.425 77.3272C262.425 74.6072 260.22 72.4023 257.5 72.4023C254.78 72.4023 252.575 74.6072 252.575 77.3272C252.575 80.0471 254.78 82.252 257.5 82.252Z" fill="white"/>
<path d="M240.051 82.252C242.771 82.252 244.976 80.0471 244.976 77.3272C244.976 74.6072 242.771 72.4023 240.051 72.4023C237.331 72.4023 235.126 74.6072 235.126 77.3272C235.126 80.0471 237.331 82.252 240.051 82.252Z" fill="white"/>
<path d="M222.609 82.252C225.329 82.252 227.534 80.0471 227.534 77.3272C227.534 74.6072 225.329 72.4023 222.609 72.4023C219.89 72.4023 217.685 74.6072 217.685 77.3272C217.685 80.0471 219.89 82.252 222.609 82.252Z" fill="white"/>
<path d="M414.174 203.903H211.335C209.609 203.898 207.956 203.211 206.736 201.991C205.516 200.771 204.829 199.118 204.824 197.392V91.1008H420.685V197.392C420.68 199.118 419.993 200.771 418.773 201.991C417.553 203.211 415.9 203.898 414.174 203.903Z" fill="#F5F5F5"/>
<path d="M175.867 106.354C175.872 104.628 176.559 102.975 177.779 101.755C178.999 100.535 180.652 99.8479 182.378 99.8433H385.217C386.943 99.8479 388.596 100.535 389.816 101.755C391.036 102.975 391.723 104.628 391.728 106.354V127.311H175.867V106.354Z" fill="#F0F0F0"/>
<path d="M228.509 118.506C231.229 118.506 233.434 116.301 233.434 113.581C233.434 110.862 231.229 108.657 228.509 108.657C225.789 108.657 223.584 110.862 223.584 113.581C223.584 116.301 225.789 118.506 228.509 118.506Z" fill="#E6E6E6"/>
<path d="M211.06 118.506C213.78 118.506 215.984 116.301 215.984 113.581C215.984 110.862 213.78 108.657 211.06 108.657C208.34 108.657 206.135 110.862 206.135 113.581C206.135 116.301 208.34 118.506 211.06 118.506Z" fill="#E6E6E6"/>
<path d="M193.618 118.506C196.338 118.506 198.543 116.301 198.543 113.581C198.543 110.862 196.338 108.657 193.618 108.657C190.898 108.657 188.693 110.862 188.693 113.581C188.693 116.301 190.898 118.506 193.618 118.506Z" fill="#E6E6E6"/>
<path d="M385.183 240.157H182.343C180.618 240.152 178.965 239.465 177.745 238.245C176.525 237.025 175.838 235.372 175.833 233.647V127.355H391.694V233.647C391.689 235.372 391.001 237.025 389.782 238.245C388.562 239.465 386.908 240.152 385.183 240.157Z" fill="#FAFAFA"/>
<path d="M146.878 142.608C146.883 140.883 147.57 139.23 148.79 138.01C150.01 136.79 151.663 136.102 153.388 136.098H356.228C357.953 136.102 359.607 136.79 360.826 138.01C362.046 139.23 362.734 140.883 362.738 142.608V163.565H146.878V142.608Z" fill="#FAFAFA"/>
<path d="M199.518 154.761C202.238 154.761 204.442 152.556 204.442 149.836C204.442 147.116 202.238 144.911 199.518 144.911C196.798 144.911 194.593 147.116 194.593 149.836C194.593 152.556 196.798 154.761 199.518 154.761Z" fill="#F0F0F0"/>
<path d="M182.068 154.761C184.788 154.761 186.993 152.556 186.993 149.836C186.993 147.116 184.788 144.911 182.068 144.911C179.348 144.911 177.144 147.116 177.144 149.836C177.144 152.556 179.348 154.761 182.068 154.761Z" fill="#F0F0F0"/>
<path d="M164.628 154.761C167.348 154.761 169.553 152.556 169.553 149.836C169.553 147.116 167.348 144.911 164.628 144.911C161.908 144.911 159.703 147.116 159.703 149.836C159.703 152.556 161.908 154.761 164.628 154.761Z" fill="#F0F0F0"/>
<path d="M356.193 276.411H153.353C151.628 276.407 149.975 275.719 148.755 274.499C147.535 273.279 146.847 271.626 146.843 269.901V163.609H362.703V269.901C362.699 271.626 362.011 273.279 360.791 274.499C359.571 275.719 357.918 276.407 356.193 276.411Z" fill="#E6E6E6"/>
<path d="M221.442 330C316.292 330 393.183 325.511 393.183 319.973C393.183 314.436 316.292 309.946 221.442 309.946C126.592 309.946 49.7012 314.436 49.7012 319.973C49.7012 325.511 126.592 330 221.442 330Z" fill="#F5F5F5"/>
<path d="M169.322 24.3585H161.501V25.2443H169.322V24.3585Z" fill="#101398"/>
<path d="M152.209 24.3585H133.015V25.2443H152.209V24.3585Z" fill="#101398"/>
<path d="M80.01 27.4587H362.87C365.689 27.4587 368.392 28.5785 370.386 30.5719C372.379 32.5652 373.499 35.2688 373.499 38.0878V282.311H69.3809V38.0878C69.3809 35.2688 70.5007 32.5652 72.4941 30.5719C74.4874 28.5785 77.191 27.4587 80.01 27.4587Z" fill="#101398"/>
<path opacity="0.8" d="M373.49 43.4024H69.3809V278.183H373.49V43.4024Z" fill="white"/>
<path opacity="0.4" d="M373.49 43.4024H69.3809V95.0159H373.49V43.4024Z" fill="#101398"/>
<path opacity="0.4" d="M367.219 48.3361H354.526V61.0291H367.219V48.3361Z" fill="#101398"/>
<path opacity="0.4" d="M348.387 48.3361H335.694V61.0291H348.387V48.3361Z" fill="#101398"/>
<path opacity="0.4" d="M329.556 48.3361H316.863V61.0291H329.556V48.3361Z" fill="#101398"/>
<path opacity="0.4" d="M126.921 269.715H114.228V270.991H126.921V269.715Z" fill="#101398"/>
<path opacity="0.4" d="M108.089 269.715H95.3965V270.991H108.089V269.715Z" fill="#101398"/>
<path opacity="0.4" d="M89.2584 269.715H76.5654V270.991H89.2584V269.715Z" fill="#101398"/>
<path d="M191.05 72.8098H187.18L186.639 74.6344H183.158L187.304 63.589H191.033L195.178 74.6344H191.635L191.05 72.8098ZM190.342 70.427L189.128 66.4323L187.915 70.4093L190.342 70.427Z" fill="white"/>
<path d="M196.072 63.589H199.172V67.4155C199.462 67.1044 199.816 66.8597 200.209 66.698C200.62 66.5319 201.059 66.4476 201.502 66.45C201.957 66.4395 202.41 66.5283 202.827 66.7103C203.245 66.8924 203.618 67.1632 203.92 67.504C204.608 68.3543 204.95 69.4331 204.877 70.5245C204.894 71.314 204.746 72.0983 204.443 72.8275C204.194 73.4349 203.772 73.9555 203.229 74.3244C202.719 74.6502 202.125 74.8196 201.52 74.8116C201.006 74.8173 200.499 74.6988 200.04 74.4661C199.61 74.204 199.236 73.8575 198.942 73.4475V74.6344H196.072V63.589ZM199.146 70.6131C199.103 71.1417 199.24 71.6694 199.536 72.11C199.654 72.2563 199.804 72.3738 199.974 72.4536C200.144 72.5334 200.331 72.5734 200.519 72.5706C200.692 72.5665 200.862 72.5229 201.015 72.443C201.169 72.3632 201.302 72.2493 201.405 72.11C201.694 71.6543 201.825 71.1155 201.777 70.5776C201.814 70.0866 201.686 69.5973 201.413 69.187C201.309 69.0505 201.175 68.9396 201.022 68.8628C200.868 68.7861 200.699 68.7455 200.528 68.7441C200.334 68.7372 200.141 68.7751 199.964 68.855C199.788 68.9349 199.632 69.0546 199.509 69.2047C199.225 69.6165 199.097 70.1155 199.146 70.6131Z" fill="white"/>
<path d="M205.966 70.6574C205.95 70.0952 206.053 69.5359 206.266 69.0156C206.48 68.4953 206.8 68.0257 207.207 67.6369C207.656 67.226 208.183 66.9081 208.756 66.7013C209.329 66.4946 209.937 66.4032 210.546 66.4323C211.215 66.3852 211.887 66.4862 212.513 66.7281C213.139 66.97 213.705 67.3468 214.169 67.8318C214.849 68.6553 215.201 69.7007 215.159 70.7678C215.116 71.8349 214.682 72.8489 213.938 73.6158C213.478 74.026 212.942 74.3413 212.36 74.5434C211.777 74.7456 211.161 74.8307 210.546 74.7939C209.425 74.8443 208.321 74.4995 207.428 73.8195C206.958 73.4401 206.581 72.9575 206.328 72.4091C206.075 71.8607 205.951 71.2613 205.966 70.6574ZM209.04 70.6574C208.998 71.2201 209.151 71.78 209.474 72.2429C209.609 72.4 209.776 72.5262 209.964 72.6127C210.152 72.6992 210.357 72.744 210.564 72.744C210.771 72.744 210.975 72.6992 211.163 72.6127C211.351 72.5262 211.518 72.4 211.653 72.2429C211.977 71.7676 212.127 71.1951 212.078 70.6219C212.131 70.0826 211.996 69.5416 211.697 69.0896C211.57 68.9309 211.408 68.8031 211.224 68.7157C211.04 68.6283 210.838 68.5835 210.634 68.5847C210.423 68.5791 210.213 68.6226 210.021 68.7117C209.829 68.8009 209.66 68.9332 209.527 69.0984C209.188 69.5421 209.016 70.0907 209.04 70.6485V70.6574Z" fill="white"/>
<path d="M225.063 74.6344H222.202V73.3412C221.855 73.8056 221.414 74.1919 220.908 74.475C220.41 74.7168 219.859 74.8324 219.305 74.8116C218.94 74.8324 218.575 74.7761 218.233 74.6464C217.891 74.5167 217.58 74.3164 217.321 74.0587C216.792 73.4029 216.535 72.5689 216.604 71.7291V66.636H219.668V71.0648C219.631 71.4432 219.729 71.8226 219.943 72.1366C220.042 72.2448 220.165 72.3296 220.301 72.3848C220.438 72.4399 220.584 72.4641 220.731 72.4555C220.902 72.4575 221.07 72.4203 221.224 72.3465C221.378 72.2728 221.512 72.1646 221.617 72.0303C221.902 71.5795 222.027 71.046 221.971 70.5156V66.6714H225.036L225.063 74.6344Z" fill="white"/>
<path d="M230.625 63.589V66.636H232.308V68.877H230.625V71.7468C230.604 71.9787 230.637 72.2124 230.723 72.4289C230.778 72.5148 230.856 72.5834 230.949 72.6273C231.041 72.6711 231.144 72.6883 231.245 72.6769C231.569 72.6597 231.889 72.594 232.193 72.482L232.423 74.599C231.726 74.7585 231.013 74.8417 230.298 74.847C229.721 74.8834 229.145 74.7833 228.615 74.5547C228.251 74.362 227.966 74.0488 227.809 73.6689C227.601 73.0445 227.513 72.3862 227.552 71.7291V68.9124H226.418V66.6714H227.552V65.201L230.625 63.589Z" fill="white"/>
<path d="M246.303 63.5889H249.704V70.1702C249.709 70.7999 249.607 71.4259 249.403 72.0214C249.202 72.5921 248.875 73.1099 248.446 73.5361C248.059 73.9236 247.594 74.2253 247.082 74.4218C246.312 74.6791 245.503 74.8019 244.691 74.785C244.098 74.7837 243.507 74.7452 242.919 74.6698C242.368 74.6202 241.831 74.4701 241.334 74.227C240.881 73.9895 240.481 73.6643 240.155 73.2703C239.827 72.9041 239.579 72.4724 239.429 72.0037C239.236 71.399 239.132 70.7694 239.119 70.1347V63.5535H242.52V70.2942C242.506 70.5501 242.542 70.8063 242.628 71.048C242.713 71.2897 242.845 71.5122 243.016 71.7025C243.202 71.8765 243.421 72.0109 243.66 72.0977C243.899 72.1845 244.153 72.2218 244.407 72.2074C244.659 72.2244 244.912 72.1891 245.15 72.1037C245.388 72.0184 245.605 71.8848 245.789 71.7114C245.964 71.5216 246.1 71.2981 246.187 71.0545C246.273 70.8109 246.31 70.5523 246.294 70.2942L246.303 63.5889Z" fill="white"/>
<path d="M251.22 72.4111L254.267 72.1277C254.353 72.4344 254.536 72.7048 254.789 72.8983C255.054 73.0651 255.363 73.1484 255.675 73.1375C256.015 73.1603 256.352 73.0666 256.632 72.8717C256.713 72.8189 256.78 72.7467 256.826 72.6617C256.872 72.5767 256.897 72.4814 256.897 72.3846C256.896 72.2747 256.862 72.1676 256.801 72.0764C256.74 71.9852 256.653 71.9137 256.552 71.8708C256.124 71.7189 255.682 71.6121 255.232 71.5519C254.481 71.4433 253.74 71.2715 253.018 71.0382C252.601 70.877 252.238 70.6005 251.973 70.241C251.685 69.8719 251.532 69.4157 251.539 68.9478C251.531 68.4564 251.694 67.9775 251.999 67.5926C252.332 67.1864 252.77 66.8799 253.266 66.7068C253.966 66.4966 254.696 66.4009 255.427 66.4234C256.14 66.3983 256.852 66.4729 257.544 66.6448C257.972 66.777 258.361 67.0111 258.678 67.3269C259.015 67.683 259.274 68.1053 259.44 68.5669L256.525 68.8504C256.473 68.623 256.341 68.4218 256.153 68.2835C255.889 68.1157 255.58 68.0323 255.268 68.0443C255.003 68.023 254.739 68.0883 254.515 68.2303C254.442 68.2811 254.382 68.3486 254.34 68.4272C254.299 68.5058 254.277 68.5932 254.276 68.6821C254.276 68.7775 254.305 68.8707 254.358 68.9496C254.412 69.0286 254.488 69.0896 254.577 69.125C255 69.2712 255.441 69.3605 255.888 69.3907C256.665 69.4497 257.431 69.6136 258.164 69.8779C258.623 70.0549 259.021 70.3629 259.307 70.7636C259.562 71.1332 259.698 71.5722 259.696 72.0214C259.69 72.5008 259.545 72.9682 259.28 73.3678C258.955 73.8403 258.495 74.2043 257.96 74.413C257.175 74.6992 256.342 74.8286 255.507 74.7938C254.43 74.8805 253.351 74.6659 252.389 74.1738C251.785 73.7605 251.366 73.1283 251.22 72.4111Z" fill="white"/>
<path d="M132.137 194.974C156.596 194.974 176.425 175.146 176.425 150.686C176.425 126.226 156.596 106.398 132.137 106.398C107.677 106.398 87.8486 126.226 87.8486 150.686C87.8486 175.146 107.677 194.974 132.137 194.974Z" fill="#101398"/>
<path d="M161.807 180.353C178.192 163.967 178.192 137.401 161.807 121.015C145.421 104.629 118.854 104.629 102.468 121.015C86.0822 137.401 86.0822 163.967 102.468 180.353C118.854 196.739 145.421 196.739 161.807 180.353Z" fill="white"/>
<path d="M134.28 159.437L137.823 152.068C137.823 152.068 156.318 157.914 159.082 159.269C159.011 154.645 161.367 145.983 161.624 141.235C162.324 140.571 164.015 138.897 164.892 138.959C167.55 145.159 166.974 166.417 161.748 166.798C153.395 167.33 134.28 159.437 134.28 159.437Z" fill="#B55B52"/>
<path d="M131.976 158.286C134.111 163.291 151.64 167.746 151.64 167.746L155.183 156.975C155.183 156.975 148.505 151.908 141.569 150.27C134.474 148.578 129.62 152.794 131.976 158.286Z" fill="#101398"/>
<path opacity="0.2" d="M132.287 158.871C134.369 162.015 142.11 164.867 147.15 166.453C143.793 159.933 139.267 156.337 132.287 158.871Z" fill="black"/>
<path d="M161.606 142.174L158.78 138.551L164.006 135.637C165.035 137.192 165.564 139.025 165.521 140.89L161.606 142.174Z" fill="#B55B52"/>
<path d="M158.01 133.538L163.103 132.714L164.006 135.637L158.78 138.551L158.01 133.538Z" fill="#B55B52"/>
<path d="M141.995 150.633C141.995 150.633 149.134 167.817 143.536 199.837H115.635C115.307 195.16 117.689 172.378 112.641 150.341C115.995 149.687 119.389 149.255 122.8 149.047C127.11 148.799 131.431 148.799 135.741 149.047C140.259 149.464 141.995 150.633 141.995 150.633Z" fill="#101398"/>
<path opacity="0.2" d="M119.381 155.77C119.983 159.402 119.053 168.074 115.838 178.092C115.678 169.507 114.765 160.953 113.109 152.528C115.147 152.28 118.814 152.351 119.381 155.77Z" fill="black"/>
<path d="M124.192 136.948C125.078 141.111 125.645 146.275 122.802 149.047C122.802 149.047 124.573 153.273 132.315 153.273C139.401 153.273 135.743 149.047 135.743 149.047C131.075 147.94 131.172 142.2 131.907 138.959L124.192 136.948Z" fill="#B55B52"/>
<path d="M132.676 152.936L134.359 154.796C134.416 154.86 134.456 154.938 134.474 155.021C134.493 155.105 134.49 155.192 134.466 155.274L133.925 156.913C133.895 157.003 133.838 157.081 133.762 157.138C133.686 157.195 133.595 157.228 133.5 157.232L131.729 157.32C131.643 157.326 131.558 157.308 131.481 157.269C131.405 157.23 131.34 157.171 131.294 157.099L130.205 155.514C130.141 155.428 130.106 155.324 130.106 155.217C130.106 155.11 130.141 155.006 130.205 154.92L131.977 152.936C132.069 152.843 132.195 152.792 132.326 152.792C132.458 152.792 132.583 152.843 132.676 152.936Z" fill="white"/>
<path d="M132.313 152.528C131.454 153.967 130.978 155.601 130.931 157.276C130.931 157.276 121.188 153.857 121.48 148.844C121.48 148.844 122.835 148.029 123.694 147.364C123.694 147.364 124.102 150.527 132.313 152.528Z" fill="#263238"/>
<path d="M132.313 152.528C133.233 153.876 133.908 155.375 134.306 156.957C134.306 156.957 138.629 153.981 137.185 149.03C136.374 148.705 135.539 148.441 134.687 148.241C134.687 148.241 135.343 151.466 132.313 152.528Z" fill="#263238"/>
<path d="M133.103 156.975C133.103 156.975 135.875 177.348 135.937 180.891C135.899 184.245 135.371 187.575 134.369 190.776C134.369 190.776 132.465 187.171 132.137 180.74C131.809 174.309 132.208 160.58 132.066 156.966L133.103 156.975Z" fill="white"/>
<path opacity="0.2" d="M131.906 138.967C131.336 141.221 131.403 143.588 132.101 145.806C131.38 145.694 130.679 145.479 130.02 145.168C127.362 143.928 126.025 141.988 124.617 139.109C124.492 138.365 124.351 137.648 124.2 136.948L131.906 138.967Z" fill="black"/>
<path d="M139.248 136.044C138.933 136.666 138.497 137.217 137.964 137.666C137.431 138.115 136.814 138.452 136.148 138.657C134.377 139.18 133.411 137.559 133.854 135.832C134.261 134.273 135.626 132.129 137.486 132.351C137.885 132.411 138.263 132.568 138.588 132.809C138.912 133.049 139.173 133.366 139.347 133.73C139.521 134.094 139.603 134.496 139.586 134.899C139.568 135.303 139.453 135.696 139.248 136.044Z" fill="#B55B52"/>
<path opacity="0.2" d="M139.248 136.044C138.933 136.666 138.497 137.217 137.964 137.666C137.431 138.115 136.814 138.452 136.148 138.657C134.377 139.18 133.411 137.559 133.854 135.832C134.261 134.273 135.626 132.129 137.486 132.351C137.885 132.411 138.263 132.568 138.588 132.809C138.912 133.049 139.173 133.366 139.347 133.73C139.521 134.094 139.603 134.496 139.586 134.899C139.568 135.303 139.453 135.696 139.248 136.044Z" fill="black"/>
<path d="M134.112 132.439C135.883 134.06 139.116 125.167 135.494 122.696C131.871 120.225 130.604 123.582 130.666 125.628C130.728 127.674 131.437 130.039 134.112 132.439Z" fill="#263238"/>
<path d="M122.013 130.942C122.846 136.576 123.049 139.915 126.123 142.635C130.738 146.718 137.408 143.653 138.249 137.913C139.011 132.741 137.523 124.388 131.863 122.501C130.623 122.08 129.296 121.989 128.01 122.237C126.725 122.484 125.526 123.063 124.532 123.915C123.538 124.766 122.783 125.862 122.341 127.095C121.9 128.327 121.787 129.653 122.013 130.942Z" fill="#B55B52"/>
<path d="M121.659 135.726C122.633 136.354 123.971 138.055 125.981 135.044C125.981 134.264 124.006 132.953 123.856 131.111C123.678 128.967 123.209 126.682 121.473 125.929C117.514 124.157 116.787 127.559 117.177 129.596C117.567 131.633 118.638 133.75 121.659 135.726Z" fill="#263238"/>
<path d="M121.126 127.913C130.471 126.46 135.989 126.142 138.797 122.643C141.605 119.144 137.291 114.813 132.597 114.317C132.26 116.141 127.504 120.942 120.196 123.024C119.789 123.136 119.423 123.362 119.142 123.677C118.861 123.991 118.676 124.38 118.609 124.796C118.543 125.213 118.598 125.64 118.768 126.026C118.938 126.412 119.215 126.742 119.567 126.974C120.462 127.55 121.126 127.913 121.126 127.913Z" fill="#263238"/>
<path d="M120.036 137.355C120.888 138.512 122.161 139.285 123.579 139.508C125.431 139.791 126.095 138.064 125.351 136.416C124.687 134.928 122.924 132.997 121.17 133.467C119.416 133.936 119 135.929 120.036 137.355Z" fill="#B55B52"/>
<path d="M130.613 131.979C130.613 132.439 130.932 132.803 131.225 132.776C131.517 132.749 131.729 132.369 131.694 131.89C131.659 131.412 131.384 131.075 131.083 131.093C130.782 131.111 130.578 131.483 130.613 131.979Z" fill="#263238"/>
<path d="M135.751 131.598C135.795 132.058 136.07 132.413 136.362 132.395C136.654 132.377 136.867 131.988 136.832 131.509C136.796 131.031 136.513 130.686 136.22 130.712C135.928 130.739 135.715 131.137 135.751 131.598Z" fill="#263238"/>
<path d="M134.139 131.979C134.803 133.352 135.649 134.63 136.654 135.779C136.362 136.024 136.019 136.202 135.65 136.299C135.281 136.395 134.894 136.408 134.52 136.337L134.139 131.979Z" fill="#A02724"/>
<path d="M133.305 137.657C133.322 137.655 133.339 137.651 133.354 137.643C133.369 137.635 133.383 137.624 133.394 137.611C133.405 137.598 133.412 137.582 133.417 137.566C133.422 137.549 133.423 137.532 133.42 137.515C133.419 137.497 133.414 137.48 133.407 137.465C133.399 137.449 133.388 137.435 133.375 137.423C133.362 137.412 133.347 137.403 133.33 137.397C133.313 137.392 133.296 137.39 133.278 137.391C132.708 137.439 132.135 137.352 131.604 137.139C131.073 136.925 130.6 136.589 130.223 136.16C130.212 136.146 130.199 136.134 130.184 136.125C130.169 136.116 130.152 136.11 130.135 136.108C130.118 136.105 130.1 136.106 130.083 136.111C130.066 136.115 130.05 136.123 130.037 136.133C130.023 136.143 130.011 136.157 130.002 136.172C129.993 136.187 129.987 136.203 129.985 136.22C129.982 136.238 129.983 136.255 129.988 136.272C129.992 136.289 129.999 136.305 130.01 136.319C130.412 136.79 130.921 137.157 131.494 137.39C132.068 137.622 132.689 137.714 133.305 137.657Z" fill="#263238"/>
<path d="M128.922 130.367C128.963 130.366 129.003 130.355 129.038 130.335C129.074 130.315 129.104 130.286 129.126 130.252C129.294 129.962 129.531 129.717 129.814 129.538C130.098 129.359 130.421 129.251 130.755 129.224C130.791 129.225 130.826 129.219 130.858 129.206C130.891 129.193 130.921 129.174 130.946 129.149C130.971 129.124 130.99 129.094 131.003 129.061C131.016 129.029 131.022 128.994 131.021 128.958C131.021 128.886 130.992 128.816 130.941 128.764C130.889 128.713 130.819 128.684 130.746 128.684C130.323 128.708 129.913 128.837 129.552 129.058C129.19 129.279 128.889 129.585 128.674 129.95C128.655 129.98 128.642 130.014 128.636 130.049C128.63 130.084 128.631 130.12 128.639 130.155C128.647 130.19 128.663 130.223 128.684 130.251C128.705 130.28 128.732 130.304 128.762 130.322C128.785 130.34 128.81 130.353 128.838 130.361C128.865 130.368 128.894 130.37 128.922 130.367Z" fill="#263238"/>
<path d="M137.904 129.596L138.01 129.552C138.041 129.532 138.067 129.507 138.087 129.476C138.108 129.446 138.122 129.412 138.128 129.377C138.135 129.341 138.134 129.304 138.126 129.269C138.118 129.234 138.103 129.2 138.081 129.171C137.852 128.808 137.539 128.504 137.17 128.286C136.8 128.067 136.384 127.939 135.955 127.913C135.92 127.913 135.884 127.92 135.852 127.934C135.819 127.948 135.789 127.968 135.764 127.994C135.739 128.02 135.72 128.05 135.707 128.083C135.694 128.117 135.688 128.152 135.69 128.188C135.692 128.259 135.722 128.327 135.773 128.376C135.824 128.426 135.893 128.453 135.964 128.453C136.304 128.479 136.633 128.584 136.924 128.761C137.215 128.938 137.46 129.182 137.638 129.472C137.668 129.514 137.709 129.547 137.755 129.569C137.802 129.59 137.853 129.6 137.904 129.596Z" fill="#263238"/>
<path d="M109.434 157.896L116.609 162.112C116.609 162.112 107.557 179.828 108.54 182.591C109.877 186.312 111.906 194.487 114.279 198.535C114.049 199.421 112.721 201.573 111.941 201.972C106.237 198.145 99.9921 185.612 100.01 182.033C100.09 173.911 109.434 157.896 109.434 157.896Z" fill="#B55B52"/>
<path d="M112.64 150.341C107.273 151.12 101.56 169.827 101.56 169.827L114.261 173.875C116.526 169.628 118.488 165.227 120.134 160.704C122.49 153.795 118.398 149.499 112.64 150.341Z" fill="#101398"/>
<path d="M112.977 197.826L118.389 197.437L115.661 203.407C115.661 203.407 110.913 203.593 110.045 199.97L112.977 197.826Z" fill="#B55B52"/>
<path d="M122.854 200.183L120.108 205.471L115.661 203.407L118.389 197.437L122.854 200.183Z" fill="#B55B52"/>
<path d="M310.743 269.662C335.203 269.662 355.031 249.833 355.031 225.374C355.031 200.914 335.203 181.086 310.743 181.086C286.284 181.086 266.455 200.914 266.455 225.374C266.455 249.833 286.284 269.662 310.743 269.662Z" fill="#101398"/>
<path d="M310.743 267.332C333.916 267.332 352.701 248.547 352.701 225.374C352.701 202.201 333.916 183.415 310.743 183.415C287.57 183.415 268.784 202.201 268.784 225.374C268.784 248.547 287.57 267.332 310.743 267.332Z" fill="white"/>
<path d="M308.811 193.486C302.514 192.919 298.59 202.61 299.901 217.402C307.872 221.928 317.005 217.402 324.312 221.042C331.071 210.705 329.273 187.392 308.811 193.486Z" fill="#263238"/>
<path d="M298.978 236.304C298.073 239.664 296.799 242.914 295.178 245.994C294.306 247.68 293.216 249.243 291.936 250.645C291.561 251.047 291.155 251.421 290.723 251.761C290.044 252.346 289.232 252.757 288.358 252.956C287.685 253.094 286.988 253.064 286.329 252.868C285.743 252.689 285.203 252.387 284.744 251.982C284.166 251.462 283.696 250.833 283.362 250.131C282.924 249.189 282.6 248.199 282.397 247.181C282.206 246.304 282.064 245.417 281.971 244.524C281.776 242.752 281.688 241.105 281.661 239.422C281.612 236.094 281.763 232.767 282.113 229.457L285.373 229.519C285.656 232.708 285.984 235.932 286.4 239.068C286.622 240.635 286.87 242.194 287.188 243.682C287.348 244.418 287.534 245.144 287.729 245.808C287.888 246.383 288.117 246.936 288.411 247.456C288.508 247.615 288.632 247.704 288.482 247.536C288.329 247.404 288.151 247.304 287.959 247.243C287.693 247.161 287.41 247.143 287.135 247.19C286.737 247.261 286.71 247.376 286.87 247.19C287.056 247 287.231 246.799 287.392 246.588C288.2 245.484 288.886 244.296 289.438 243.045C290.084 241.679 290.658 240.281 291.157 238.855C291.688 237.429 292.184 235.897 292.618 234.515L298.978 236.304Z" fill="#FFB573"/>
<path d="M294.604 227.774C291.947 228.456 290.087 239.386 290.087 239.386L300.247 246.295C300.247 246.295 304.427 233.337 302.381 230.414C300.335 227.491 298.502 226.755 294.604 227.774Z" fill="#263238"/>
<path opacity="0.2" d="M294.843 230.219L292.797 241.238L296.916 244.028L294.843 230.219Z" fill="black"/>
<path d="M285.515 230.431L286.862 223.638L281.459 225.205C281.459 225.205 280.927 229.909 283.106 231.459L285.515 230.431Z" fill="#FFB573"/>
<path d="M286.322 220.653L281.858 222.504L281.459 225.205L286.862 223.638L286.322 220.653Z" fill="#FFB573"/>
<path d="M294.602 227.774C294.602 227.774 291.529 228.864 297.685 266.686H323.859C323.425 256.057 323.407 249.458 328.5 227.588C324.835 226.835 321.12 226.346 317.384 226.127C313.427 225.843 309.454 225.843 305.497 226.127C300.395 226.596 294.602 227.774 294.602 227.774Z" fill="#263238"/>
<path opacity="0.2" d="M326.348 236.251C323.974 236.836 321.778 239.431 322.043 244.223C322.191 246.391 322.95 248.473 324.231 250.228C324.648 246.561 325.347 242.301 326.463 236.862L326.348 236.251Z" fill="black"/>
<path d="M306.88 234.515C306.88 234.515 311.167 238.058 311.167 241.805C314.71 239.192 319.537 232.061 320.025 227.535C320.042 227.352 320.021 227.167 319.965 226.991C319.908 226.816 319.817 226.654 319.696 226.515C319.575 226.376 319.427 226.262 319.262 226.182C319.096 226.102 318.915 226.056 318.731 226.047C318.41 226.025 318.091 225.984 317.775 225.923C317.641 225.895 317.503 225.897 317.371 225.931C317.239 225.965 317.116 226.029 317.013 226.118L306.88 234.515Z" fill="#FAFAFA"/>
<path d="M306.88 234.515C305.712 235.38 304.73 236.471 303.992 237.723C303.254 238.976 302.775 240.364 302.584 241.805C298.97 239.147 300.467 230.972 302.478 227.11C302.636 226.808 302.866 226.551 303.147 226.359C303.428 226.168 303.752 226.048 304.09 226.011C304.613 225.949 305.02 225.879 305.286 225.825C305.334 225.815 305.383 225.815 305.431 225.825C305.479 225.835 305.524 225.855 305.564 225.883C305.604 225.911 305.638 225.947 305.663 225.989C305.688 226.031 305.705 226.078 305.711 226.127L306.88 234.515Z" fill="#FAFAFA"/>
<path d="M316.216 212.743C315.472 216.569 314.719 223.576 317.394 226.127C314.493 229.602 310.92 232.455 306.889 234.515C301.574 230.272 305.507 226.127 305.507 226.127C309.776 225.108 309.661 221.946 308.917 218.97L316.216 212.743Z" fill="#FFB573"/>
<path opacity="0.2" d="M313.231 215.285L308.917 218.97C309.097 219.661 309.219 220.366 309.28 221.078C310.91 220.847 313.47 219.457 313.824 217.685C313.829 216.848 313.625 216.023 313.231 215.285Z" fill="black"/>
<path d="M322.621 206.596C320.849 212.743 320.238 215.382 316.376 217.889C310.574 221.645 303.408 218.128 303.302 211.574C303.205 205.674 306.119 196.613 312.771 195.488C314.237 195.233 315.743 195.357 317.147 195.849C318.551 196.34 319.806 197.182 320.793 198.295C321.78 199.408 322.466 200.755 322.786 202.208C323.106 203.661 323.049 205.171 322.621 206.596Z" fill="#FFB573"/>
<path d="M317.899 200.865C318.98 207.003 319.396 209.377 321.566 210.962C323.737 212.548 325.756 205.267 324.153 202.468C322.55 199.669 317.899 200.865 317.899 200.865Z" fill="#263238"/>
<path d="M307.695 195.107C306.393 196.648 309.068 199.873 311.663 200.927C311.503 200.588 311.387 200.231 311.317 199.864C313.191 201.145 315.298 202.048 317.518 202.521C317.268 202.204 317.1 201.829 317.031 201.432C317.031 201.13 323.426 205.364 324.356 202.317C325.286 199.27 322.115 195.284 317.27 194.009C313.142 192.972 309.298 193.203 307.695 195.107Z" fill="#263238"/>
<path d="M312.309 206.046C312.203 206.551 311.84 206.932 311.503 206.826C311.166 206.72 310.998 206.286 311.113 205.772C311.228 205.258 311.583 204.886 311.919 204.992C312.256 205.099 312.424 205.497 312.309 206.046Z" fill="#263238"/>
<path d="M306.579 204.771C306.464 205.276 306.1 205.657 305.773 205.55C305.445 205.444 305.259 205.01 305.374 204.496C305.489 203.983 305.844 203.61 306.18 203.717C306.517 203.823 306.685 204.257 306.579 204.771Z" fill="#263238"/>
<path d="M306.321 203.779L305.179 203.15C305.179 203.15 305.586 204.239 306.321 203.779Z" fill="#263238"/>
<path d="M308.139 206.073C307.431 207.129 306.581 208.082 305.614 208.907C305.835 209.156 306.109 209.352 306.415 209.481C306.722 209.609 307.054 209.668 307.386 209.651L308.139 206.073Z" fill="#ED893E"/>
<path d="M309.669 212.256C309.413 212.236 309.159 212.2 308.907 212.149C308.868 212.139 308.834 212.114 308.813 212.079C308.792 212.045 308.784 212.003 308.792 211.963C308.796 211.943 308.805 211.924 308.816 211.907C308.828 211.891 308.843 211.876 308.861 211.866C308.878 211.855 308.897 211.848 308.918 211.845C308.938 211.842 308.959 211.843 308.978 211.848C309.606 212.001 310.261 212.005 310.89 211.859C311.519 211.712 312.105 211.421 312.601 211.007C312.631 210.978 312.671 210.962 312.712 210.962C312.753 210.962 312.793 210.978 312.823 211.007C312.849 211.036 312.863 211.074 312.863 211.113C312.863 211.152 312.849 211.19 312.823 211.219C312.391 211.592 311.891 211.875 311.35 212.053C310.808 212.231 310.237 212.3 309.669 212.256Z" fill="#263238"/>
<path d="M323.028 212.734C322.333 213.754 321.263 214.458 320.051 214.691C318.439 214.993 317.775 213.513 318.351 212.034C318.865 210.732 320.317 209.014 321.894 209.377C322.237 209.461 322.553 209.63 322.814 209.869C323.074 210.108 323.27 210.409 323.383 210.744C323.496 211.079 323.523 211.437 323.46 211.784C323.398 212.132 323.249 212.459 323.028 212.734Z" fill="#FFB573"/>
<path d="M315.126 204.93C315.062 204.923 315.002 204.895 314.955 204.85C314.909 204.805 314.879 204.746 314.869 204.682C314.717 204.207 314.469 203.768 314.14 203.394C313.81 203.019 313.408 202.716 312.956 202.503C312.914 202.49 312.875 202.469 312.841 202.439C312.808 202.41 312.782 202.374 312.763 202.334C312.745 202.293 312.736 202.25 312.736 202.205C312.737 202.161 312.746 202.117 312.765 202.077C312.783 202.037 312.81 202.001 312.844 201.972C312.877 201.943 312.916 201.922 312.959 201.909C313.001 201.897 313.046 201.894 313.09 201.9C313.134 201.906 313.176 201.922 313.213 201.945C313.756 202.202 314.238 202.571 314.626 203.03C315.014 203.488 315.3 204.024 315.463 204.603C315.476 204.681 315.459 204.762 315.414 204.828C315.37 204.894 315.301 204.94 315.224 204.957L315.126 204.93Z" fill="#263238"/>
<path d="M305.445 200.705C305.391 200.707 305.337 200.695 305.289 200.67C305.241 200.645 305.2 200.608 305.17 200.563C305.126 200.495 305.111 200.412 305.128 200.333C305.144 200.253 305.191 200.183 305.259 200.138C305.658 199.863 306.117 199.687 306.598 199.626C307.078 199.564 307.567 199.618 308.022 199.784C308.06 199.799 308.095 199.822 308.124 199.851C308.152 199.881 308.175 199.915 308.19 199.953C308.205 199.991 308.212 200.032 308.21 200.073C308.209 200.114 308.199 200.154 308.182 200.191C308.166 200.227 308.142 200.26 308.113 200.287C308.085 200.314 308.051 200.335 308.014 200.349C307.977 200.363 307.937 200.37 307.898 200.369C307.858 200.367 307.819 200.358 307.783 200.342C307.42 200.22 307.032 200.184 306.653 200.238C306.273 200.292 305.911 200.433 305.595 200.652C305.551 200.683 305.499 200.701 305.445 200.705Z" fill="#263238"/>
<path d="M312.053 205.054L310.919 204.425C310.919 204.425 311.326 205.497 312.053 205.054Z" fill="#263238"/>
<path d="M324.259 265.153L324.923 267.492C325.021 267.678 324.799 267.864 324.498 267.864H297.553C297.314 267.864 297.119 267.74 297.11 267.598L296.871 265.251C296.871 265.091 297.057 264.95 297.314 264.95H323.834C323.916 264.943 323.999 264.958 324.074 264.994C324.148 265.03 324.212 265.085 324.259 265.153Z" fill="#101398"/>
<path opacity="0.2" d="M324.259 265.153L324.923 267.492C325.021 267.678 324.799 267.864 324.498 267.864H297.553C297.314 267.864 297.119 267.74 297.11 267.598L296.871 265.251C296.871 265.091 297.057 264.95 297.314 264.95H323.834C323.916 264.943 323.999 264.958 324.074 264.994C324.148 265.03 324.212 265.085 324.259 265.153Z" fill="black"/>
<path d="M320.645 268.112H321.353C321.495 268.112 321.602 268.041 321.593 267.952L321.256 264.905C321.256 264.817 321.123 264.746 320.981 264.746H320.273C320.131 264.746 320.025 264.817 320.034 264.905L320.37 267.952C320.344 268.041 320.468 268.112 320.645 268.112Z" fill="#101398"/>
<path opacity="0.4" d="M320.645 268.112H321.353C321.495 268.112 321.602 268.041 321.593 267.952L321.256 264.905C321.256 264.817 321.123 264.746 320.981 264.746H320.273C320.131 264.746 320.025 264.817 320.034 264.905L320.37 267.952C320.344 268.041 320.468 268.112 320.645 268.112Z" fill="black"/>
<path d="M299.546 268.112H300.255C300.397 268.112 300.512 268.041 300.503 267.952L300.166 264.905C300.166 264.817 300.033 264.746 299.892 264.746H299.183C299.041 264.746 298.935 264.817 298.944 264.905L299.272 267.952C299.28 268.041 299.387 268.112 299.546 268.112Z" fill="#101398"/>
<path opacity="0.4" d="M299.546 268.112H300.255C300.397 268.112 300.512 268.041 300.503 267.952L300.166 264.905C300.166 264.817 300.033 264.746 299.892 264.746H299.183C299.041 264.746 298.935 264.817 298.944 264.905L299.272 267.952C299.28 268.041 299.387 268.112 299.546 268.112Z" fill="black"/>
<path d="M310.016 268.112H310.725C310.866 268.112 310.973 268.041 310.964 267.952L310.636 264.905C310.636 264.817 310.503 264.746 310.361 264.746H309.653C309.511 264.746 309.396 264.817 309.405 264.905L309.741 267.952C309.768 268.041 309.892 268.112 310.016 268.112Z" fill="#101398"/>
<path opacity="0.4" d="M310.016 268.112H310.725C310.866 268.112 310.973 268.041 310.964 267.952L310.636 264.905C310.636 264.817 310.503 264.746 310.361 264.746H309.653C309.511 264.746 309.396 264.817 309.405 264.905L309.741 267.952C309.768 268.041 309.892 268.112 310.016 268.112Z" fill="black"/>
<path d="M308.129 271.929L301.778 269.086L303.55 275.384C303.55 275.384 307.589 276.27 309.343 274.277L308.129 271.929Z" fill="#FFB573"/>
<path d="M331.557 235.356C331.849 237.571 332.079 239.785 332.345 241.999L333.018 248.652C333.257 250.866 333.426 253.08 333.621 255.304L333.931 258.643L334.001 259.476C334.001 259.564 334.001 259.91 334.046 260.149C334.059 260.405 334.059 260.663 334.046 260.919C333.939 261.871 333.637 262.791 333.16 263.621C332.391 264.902 331.373 266.017 330.166 266.898C329.154 267.66 328.081 268.338 326.96 268.927C324.863 270.004 322.686 270.919 320.449 271.664C316.117 273.117 311.674 274.213 307.163 274.941L306.437 271.761C308.5 271.079 310.608 270.379 312.637 269.6C314.665 268.82 316.72 268.05 318.678 267.155C320.607 266.31 322.477 265.337 324.276 264.241C325.1 263.734 325.885 263.166 326.623 262.54C327.198 262.073 327.677 261.499 328.031 260.848C328.109 260.706 328.154 260.549 328.164 260.388L328.014 259.334L327.544 256.021C327.234 253.816 326.889 251.592 326.659 249.396L325.817 242.761C325.578 240.538 325.294 238.332 325.091 236.109L331.557 235.356Z" fill="#FFB573"/>
<path d="M328.501 227.588C331.159 228.385 334.276 237.42 334.276 237.42L325.073 246.871C325.073 246.871 320.361 237.128 321.468 233.771C322.637 230.237 325.507 226.685 328.501 227.588Z" fill="#263238"/>
<path d="M296.517 270.379L298.315 275.57L303.585 275.366L301.769 269.068L296.517 270.379Z" fill="#FFB573"/>
<path d="M306.907 146.452H190.606C189.586 146.452 188.609 146.047 187.888 145.326C187.167 144.605 186.762 143.628 186.762 142.608C186.762 142.104 186.861 141.604 187.055 141.138C187.248 140.672 187.531 140.249 187.888 139.893C188.245 139.537 188.669 139.254 189.135 139.062C189.602 138.87 190.102 138.771 190.606 138.773H306.907C307.924 138.773 308.899 139.177 309.619 139.896C310.338 140.615 310.742 141.591 310.742 142.608C310.743 143.112 310.645 143.612 310.453 144.078C310.26 144.545 309.978 144.969 309.622 145.326C309.266 145.683 308.842 145.966 308.376 146.159C307.911 146.353 307.411 146.452 306.907 146.452Z" fill="white"/>
<path d="M279.9 162.6H190.606C190.102 162.601 189.602 162.502 189.135 162.31C188.669 162.118 188.245 161.836 187.888 161.479C187.531 161.123 187.248 160.7 187.055 160.234C186.861 159.768 186.762 159.269 186.762 158.764C186.762 157.745 187.167 156.767 187.888 156.046C188.609 155.325 189.586 154.92 190.606 154.92H279.9C280.919 154.92 281.897 155.325 282.618 156.046C283.339 156.767 283.744 157.745 283.744 158.764C283.744 159.269 283.644 159.768 283.451 160.234C283.258 160.7 282.975 161.123 282.617 161.479C282.26 161.836 281.837 162.118 281.37 162.31C280.904 162.502 280.404 162.601 279.9 162.6Z" fill="white"/>
<path d="M207.905 221.14H252.273C253.292 221.14 254.27 220.735 254.991 220.014C255.712 219.293 256.117 218.315 256.117 217.296C256.117 216.791 256.017 216.292 255.824 215.826C255.631 215.36 255.347 214.937 254.99 214.58C254.633 214.224 254.209 213.942 253.743 213.75C253.277 213.557 252.777 213.459 252.273 213.46H207.905C206.888 213.46 205.912 213.864 205.193 214.584C204.473 215.303 204.069 216.278 204.069 217.296C204.068 217.8 204.167 218.3 204.359 218.766C204.551 219.232 204.833 219.656 205.19 220.013C205.546 220.37 205.969 220.654 206.435 220.847C206.901 221.04 207.4 221.14 207.905 221.14Z" fill="white"/>
<path d="M158.604 221.14H189.216C189.72 221.14 190.22 221.04 190.686 220.847C191.152 220.654 191.575 220.37 191.931 220.013C192.287 219.656 192.57 219.232 192.762 218.766C192.954 218.3 193.052 217.8 193.051 217.296C193.051 216.278 192.647 215.303 191.928 214.584C191.209 213.864 190.233 213.46 189.216 213.46H158.604C157.587 213.46 156.611 213.864 155.892 214.584C155.173 215.303 154.769 216.278 154.769 217.296C154.767 217.8 154.866 218.3 155.058 218.766C155.25 219.232 155.533 219.656 155.889 220.013C156.245 220.37 156.668 220.654 157.134 220.847C157.6 221.04 158.1 221.14 158.604 221.14Z" fill="white"/>
<path d="M135.972 237.287H252.273C252.777 237.288 253.277 237.19 253.743 236.998C254.21 236.806 254.633 236.523 254.991 236.167C255.348 235.811 255.631 235.388 255.824 234.922C256.018 234.456 256.117 233.956 256.117 233.452C256.117 232.432 255.712 231.455 254.991 230.734C254.27 230.013 253.292 229.608 252.273 229.608H135.972C135.468 229.608 134.968 229.707 134.502 229.9C134.036 230.094 133.613 230.377 133.257 230.734C132.901 231.091 132.618 231.515 132.426 231.981C132.234 232.448 132.136 232.947 132.137 233.452C132.137 234.469 132.541 235.445 133.26 236.164C133.979 236.883 134.955 237.287 135.972 237.287Z" fill="white"/>
<path d="M88.4263 35.4305C88.4263 36.1614 88.2095 36.8759 87.8032 37.4835C87.397 38.0911 86.8196 38.5645 86.1441 38.8438C85.4687 39.1231 84.7256 39.1958 84.0088 39.0525C83.2921 38.9093 82.634 38.5566 82.1178 38.0392C81.6016 37.5217 81.2505 36.8627 81.109 36.1457C80.9674 35.4286 81.0419 34.6856 81.3228 34.0109C81.6037 33.3361 82.0785 32.7599 82.6871 32.3551C83.2957 31.9503 84.0106 31.7351 84.7416 31.7369C85.7196 31.7392 86.6569 32.1294 87.3476 32.8219C88.0384 33.5143 88.4263 34.4524 88.4263 35.4305Z" fill="white"/>
<path d="M97.2913 39.1242C99.3312 39.1242 100.985 37.4705 100.985 35.4305C100.985 33.3906 99.3312 31.7369 97.2913 31.7369C95.2514 31.7369 93.5977 33.3906 93.5977 35.4305C93.5977 37.4705 95.2514 39.1242 97.2913 39.1242Z" fill="white"/>
<path d="M109.843 39.1242C111.883 39.1242 113.537 37.4705 113.537 35.4305C113.537 33.3906 111.883 31.7369 109.843 31.7369C107.803 31.7369 106.149 33.3906 106.149 35.4305C106.149 37.4705 107.803 39.1242 109.843 39.1242Z" fill="white"/>
</svg>
